<?xml version="1.0" encoding="UTF-8"?> <!-- Generator: Adobe Illustrator 21.1.0, SVG Export Plug-In . SVG Version: 6.00 Build 0) --> <svg xmlns="http://www.w3.org/2000/svg" xmlns:xlink="http://www.w3.org/1999/xlink" id="Art" x="0px" y="0px" viewBox="0 0 1000 214" style="enable-background:new 0 0 1000 214;" xml:space="preserve"> <style type="text/css"> .st0{fill:#FFFFFF;} </style> <g> <path class="st0" d="M164.6,8.1h-10.8c-0.4,16.4-3.4,32.3-8.5,47.1c0,0,0,0,0,0.1c-6.6-14.4-10.6-30.5-11.3-47.2h-0.2h-10.6H123 c-0.7,16.7-4.6,32.6-11.2,47c0,0,0,0.1-0.1,0.1c-5.1-14.8-8-30.7-8.5-47h-0.1H92.6h-0.1C90.6,54.8,54.7,93,9,98.5v10.9 c40.3-4.4,73.9-31.5,87.7-68.2c2.1,9.1,4.9,18.1,8.4,26.6C85,101.2,49.8,126.6,9,130.4v10.8c42.2-3.5,79-28.5,101.5-61.7 c0,0,0,0,0,0c3.4,6.6,7.2,13.2,11.4,19.2C95.4,133.3,55,158.8,9,162.2V173c48.4-3.3,91.2-29.5,119.6-65.4 c28.4,35.8,71.3,62.1,119.5,65.4v-10.8c-46-3.4-86.5-29-112.9-63.5c0,0,0,0,0-0.1c4.2-6.1,8-12.5,11.4-19.1 c22.5,33.1,59.4,58.2,101.5,61.7v-10.8c-40.7-3.7-76-29.2-96.1-62.4c0,0,0,0,0-0.1c3.5-8.6,6.4-17.5,8.5-26.7 c13.8,36.7,47.4,63.8,87.7,68.2V98.5C202.4,93,166.5,54.9,164.6,8.1z M128.6,89.2C128.6,89.2,128.6,89.3,128.6,89.2 c-4.3-6.4-8.2-13.4-11.4-20.6c0,0,0,0,0,0c4.7-8.6,8.5-17.8,11.3-27.4c2.8,9.6,6.7,18.9,11.3,27.5 C136.6,75.9,132.9,82.7,128.6,89.2z"></path> <path class="st0" d="M981.5,64.8c-8,0-14.5,6.5-14.5,14.5s6.5,14.5,14.5,14.5S996,87.3,996,79.3S989.5,64.8,981.5,64.8z M981.5,90.9c-6.4,0-11.6-5.2-11.6-11.6c0-6.4,5.2-11.6,11.6-11.6s11.6,5.2,11.6,11.6C993.1,85.7,987.9,90.9,981.5,90.9z"></path> <path class="st0" d="M985.7,80.8c-0.3-0.5-0.7-0.9-1.2-1.1c-0.2-0.1-0.4-0.1-0.6-0.2c0.1,0,0.1,0,0.1,0c0.3-0.2,0.6-0.3,0.9-0.4 c0.9-0.5,1.5-1.2,1.8-2.2c0.3-0.9,0.2-1.8,0-2.7c-0.2-0.9-0.8-1.6-1.6-2c-0.6-0.3-1.2-0.5-1.8-0.6c-0.7-0.2-1.4-0.2-2.1-0.2 c-2,0-4,0-6,0h-0.1v15.1h3.9v-5.7c0.5,0,1.1-0.1,1.6,0c0.5,0.1,0.9,0.3,1.3,0.7c0.4,0.4,0.6,0.8,0.8,1.2c0.7,1.3,1.3,2.5,1.9,3.8 c0,0.1,0,0.1,0.1,0.1c1.3,0,2.7,0,4.1,0c-0.7-1.5-1.3-2.8-2.1-4.1C986.4,81.9,986.1,81.3,985.7,80.8z M982.9,77 c-0.2,0.5-0.6,0.8-1.1,1c-0.3,0.1-0.7,0.1-1.1,0.1h-1.6H979v-3.8c0.1,0,0.1,0,0.1,0c0.6,0,1.1,0,1.7,0c0.4,0,0.7,0.1,1.1,0.2 c0.5,0.1,0.9,0.5,1,1S983,76.5,982.9,77z"></path> <path class="st0" d="M294.7,93.8c-25.9,0-36.8,21.6-36.8,43.1c0,23.2,10.9,43.1,36.8,43.1c20.5,0,31.2-10.7,35.5-29.2h-9.9 c-3.2,12.3-11.1,20.8-25.6,20.8c-19.1,0-26.6-17.5-26.8-32h62.6C331.3,116.7,320.9,93.8,294.7,93.8z M267.9,131.1 c1.5-14.9,10.5-29.1,26.8-29.1c16.1,0,25.4,14.1,25.9,29.1H267.9z"></path> <polygon class="st0" points="373.1,167.6 372.8,167.6 347.2,96 336.2,96 367.6,177.5 378.2,177.5 408.6,96 398.4,96 "></polygon> <path class="st0" d="M447.7,93.8c-25.9,0-36.8,21.6-36.8,43.1c0,23.2,10.9,43.1,36.8,43.1c20.5,0,31.2-10.7,35.5-29.2h-9.9 c-3.2,12.3-11.1,20.8-25.6,20.8c-19.1,0-26.6-17.5-26.8-32h62.6C484.3,116.7,473.9,93.8,447.7,93.8z M420.9,131.1 c1.5-14.9,10.5-29.1,26.8-29.1c16.1,0,25.4,14.1,25.9,29.1H420.9z"></path> <path class="st0" d="M506.1,115.1h-0.3V96h-9.1v81.5h9.9v-43.4c0-16.9,12.3-30.2,30.3-29.2v-10C522.2,94.3,511.2,102,506.1,115.1z"></path> <path class="st0" d="M588.9,94.1c-11.3,0-21.7,3.9-26.1,12.9h-0.3V64.8h-13.4h0v112.8h13.4v-10.9h0.3c6,9.6,18,12.8,26.4,12.8 c25,0,37.3-19.4,37.3-42.5C626.5,114,614,94.1,588.9,94.1z M587.8,167.5c-18.4,0-25.7-14.8-25.7-30.9c0-15.3,6.9-30.8,24.9-30.8 c17.4,0,25.3,14.9,25.3,30.1C612.3,151.9,606.1,167.5,587.8,167.5z"></path> <path class="st0" d="M650.6,113.1h-0.3V95.9h-12.6h0v81.6h13.4v-36.3c0-20.7,7.9-33,29.5-33V94C666.1,93.5,657.1,100,650.6,113.1z"></path> <rect x="693.7" y="64.8" class="st0" width="13.4" height="16.4"></rect> <rect x="693.7" y="95.9" class="st0" width="13.4" height="81.6"></rect> <path class="st0" d="M782,106.7h-0.3c-6-9.7-18-12.8-26.4-12.8c-25,0-37.3,19.4-37.3,42.5c0,23.1,12.5,43,37.6,43 c11.3,0,21.7-4,26.1-13h0.3v11.1h13.4h0V64.7H782V106.7z M757.5,167.6c-17.4,0-25.3-14.9-25.2-30.1c0-16,6.2-31.6,24.5-31.6 c18.4,0,25.7,14.8,25.7,30.9C782.5,152.1,775.5,167.6,757.5,167.6z"></path> <path class="st0" d="M868.5,107.5h-0.2c-4.9-9-14-13.6-24.3-13.6c-28.2,0-37.7,23.8-37.7,43.1c0,22.3,12.2,41.4,36.5,41.4 c10.2,0,21-4.9,25.4-14.8h0.3v5.4c0,18.4-7,31-24.5,31c-8.9,0-20.6-3.5-21.2-13.3h-13.4c0.8,17.9,18.5,24,33.8,24 c25.7,0,37.9-13.6,37.9-40.1V95.9h-12.6V107.5z M843.5,166.7c-17.7,0-23.1-16.4-23.1-31.1c0-15.6,7-29.7,24.2-29.7 c16.9,0,23.2,14.8,23.2,29.2C867.8,150.4,861.2,166.6,843.5,166.7z"></path> <path class="st0" d="M929.8,93.9c-22.3,0-38.4,18-38.4,42.5c0.8,25,13.1,43,39.2,43c18.3,0,31.3-9.8,34.9-27.8v-0.1h-13.3 c-2.4,10.5-10.1,15.9-21.2,15.9c-17.8,0-25.9-12.6-25.4-26.8h61.1C967.5,120.9,958.7,93.9,929.8,93.9z M905.6,128.9 c1-12.5,9.3-23.1,23.4-23.1c13.2,0,22.9,10.3,23.5,23.1H905.6z"></path> </g> </svg> 