<?xml version="1.0" encoding="UTF-8"?> <!-- Generator: Adobe Illustrator 21.1.0, SVG Export Plug-In . SVG Version: 6.00 Build 0) --> <svg xmlns="http://www.w3.org/2000/svg" xmlns:xlink="http://www.w3.org/1999/xlink" id="Art" x="0px" y="0px" viewBox="0 0 1000 214" style="enable-background:new 0 0 1000 214;" xml:space="preserve"> <style type="text/css"> .st0{fill:#F27121;} .st1{fill:#D0202A;} .st2{fill:#58595B;} .st3{fill:#59595B;} .st4{fill:#CF202A;} </style> <g> <g> <g> <path class="st0" d="M128.5,107.5c28.4,35.9,71.3,62.2,119.6,65.5v-10.8c-46-3.4-86.6-29-113-63.6l-6.5-9.2 c-4.3-6.6-8.2-13.7-11.5-20.9l-5.3-13.1c-5.1-14.8-8.1-30.8-8.6-47.2h-0.1H92.6h-0.1C90.6,54.8,54.7,93,9,98.5v10.9 c40.3-4.4,73.9-31.5,87.7-68.2c2.1,9.2,5,18.3,8.5,26.9l5.3,11.3c3.4,6.7,7.3,13.3,11.5,19.4L128.5,107.5z"></path> </g> <g> <path class="st1" d="M146.4,79.3c22.5,33.2,59.5,58.4,101.7,61.9v-10.8c-40.8-3.7-76.2-29.3-96.3-62.7l-6.5-12.4 c-6.6-14.4-10.6-30.5-11.3-47.2h-0.2h-10.6h-0.2c-0.7,16.7-4.6,32.6-11.2,47c-2,4.4-4.2,8.6-6.7,12.7 C85,101.2,49.8,126.6,9,130.4v10.8c42.2-3.5,79-28.5,101.5-61.7c2.4-3.5,4.6-7.2,6.7-10.9c4.7-8.6,8.5-17.8,11.3-27.4 c2.8,9.6,6.7,19,11.4,27.6L146.4,79.3z"></path> </g> <path class="st2" d="M164.6,8.1L164.6,8.1h-10.8h0c-0.4,16.4-3.4,32.3-8.5,47.1c-1.6,4.6-3.4,9-5.4,13.4 c-3.3,7.2-7,14.1-11.3,20.6c-2.1,3.2-4.3,6.4-6.6,9.4C95.5,133.3,55,158.8,9,162.2V173c48.4-3.3,91.2-29.5,119.6-65.4 c2.3-2.9,4.5-5.9,6.6-9c4.2-6.1,8-12.5,11.4-19.1c1.9-3.8,3.7-7.7,5.4-11.6c3.5-8.6,6.4-17.5,8.5-26.7 c13.8,36.7,47.4,63.8,87.7,68.2V98.5C202.4,93,166.5,54.9,164.6,8.1z"></path> </g> <g> <path class="st3" d="M981.5,93.8c-8,0-14.5-6.5-14.5-14.5c0-8,6.5-14.5,14.5-14.5c8,0,14.5,6.5,14.5,14.5 C996,87.3,989.5,93.8,981.5,93.8 M981.5,67.7c-6.4,0-11.6,5.2-11.6,11.6c0,6.4,5.2,11.6,11.6,11.6c6.4,0,11.6-5.2,11.6-11.6 C993.1,72.9,987.9,67.7,981.5,67.7"></path> <path class="st3" d="M988.8,86.6L988.8,86.6c-1.4,0-2.8,0-4.1,0c-0.1,0-0.1,0-0.1-0.1c-0.6-1.3-1.2-2.5-1.9-3.8 c-0.2-0.4-0.4-0.8-0.8-1.2c-0.4-0.4-0.8-0.6-1.3-0.7c-0.5-0.1-1.1,0-1.6,0l0,0v5.7h-3.9V71.4h0.1c2,0,4,0,6,0c0.7,0,1.4,0,2.1,0.2 c0.6,0.1,1.2,0.3,1.8,0.6c0.8,0.4,1.4,1.1,1.6,2c0.2,0.9,0.3,1.8,0,2.7c-0.3,1-0.9,1.7-1.8,2.2c-0.3,0.1-0.6,0.2-0.9,0.4 c0,0,0,0-0.1,0c0.2,0.1,0.4,0.1,0.6,0.2c0.5,0.2,0.9,0.6,1.2,1.1c0.4,0.5,0.7,1.1,1,1.7C987.5,83.8,988.1,85.1,988.8,86.6 C988.8,86.5,988.8,86.5,988.8,86.6 M979.1,78.1C979.1,78.1,979.1,78.1,979.1,78.1l1.6,0c0.4,0,0.8,0,1.1-0.1 c0.5-0.2,0.9-0.5,1.1-1c0.1-0.5,0.1-1,0-1.5c-0.1-0.5-0.5-0.9-1-1c-0.4-0.1-0.7-0.2-1.1-0.2c-0.6,0-1.1,0-1.7,0c0,0,0,0-0.1,0 V78.1z"></path> </g> <path class="st3" d="M267.9,139.5c0.2,14.5,7.7,32.1,26.8,32.1c14.5,0,22.4-8.5,25.6-20.8h9.9c-4.3,18.5-15,29.2-35.5,29.2 c-25.9,0-36.8-19.9-36.8-43.1c0-21.5,10.9-43.1,36.8-43.1c26.2,0,36.6,22.9,35.8,45.8H267.9z M320.6,131.1 c-0.5-15-9.8-29.1-25.9-29.1c-16.3,0-25.3,14.2-26.8,29.1H320.6z"></path> <polygon class="st3" points="336.2,96 347.2,96 372.8,167.6 373.1,167.6 398.4,96 408.6,96 378.2,177.5 367.6,177.5 "></polygon> <path class="st3" d="M420.9,139.5c0.2,14.5,7.7,32.1,26.8,32.1c14.5,0,22.4-8.5,25.6-20.8h9.9c-4.3,18.5-15,29.2-35.5,29.2 c-25.9,0-36.8-19.9-36.8-43.1c0-21.5,10.9-43.1,36.8-43.1c26.2,0,36.6,22.9,35.8,45.8H420.9z M473.6,131.1 c-0.5-15-9.8-29.1-25.9-29.1c-16.3,0-25.3,14.2-26.8,29.1H473.6z"></path> <path class="st3" d="M496.6,96h9.2v19.1h0.3c5.1-13.1,16.1-20.8,30.8-20.2v10c-18-1-30.3,12.3-30.3,29.2v43.4h-9.9V96z"></path> <path class="st4" d="M549.1,64.8h13.4v42.2h0.3c4.4-9,14.8-12.9,26.1-12.9c25.1,0,37.6,19.9,37.6,42.9c0,23.1-12.3,42.5-37.3,42.5 c-8.4,0-20.4-3.2-26.4-12.8h-0.3v10.9h-13.4V64.8z M587,105.8c-18,0-24.9,15.5-24.9,30.8c0,16.1,7.3,30.9,25.7,30.9 c18.3,0,24.5-15.6,24.5-31.6C612.3,120.7,604.4,105.8,587,105.8"></path> <path class="st4" d="M637.7,95.9h12.6v17.2h0.3c6.5-13.1,15.5-19.6,30-19.1v14.2c-21.6,0-29.5,12.3-29.5,33v36.3h-13.4V95.9z"></path> <path class="st4" d="M707.1,81.2h-13.4V64.8h13.4V81.2z M693.7,95.9h13.4v81.6h-13.4V95.9z"></path> <path class="st4" d="M795.4,177.5H782v-11.1h-0.3c-4.4,9-14.8,13-26.1,13c-25.1,0-37.6-19.9-37.6-43c0-23.1,12.3-42.5,37.3-42.5 c8.4,0,20.4,3.1,26.4,12.8h0.3v-42h13.4V177.5z M757.5,167.6c18,0,25-15.5,25-30.8c0-16.1-7.3-30.9-25.7-30.9 c-18.3,0-24.5,15.6-24.5,31.6C732.2,152.7,740.1,167.6,757.5,167.6"></path> <path class="st4" d="M881.1,170.6c0,26.5-12.2,40.1-37.9,40.1c-15.3,0-33-6.1-33.8-24h13.4c0.6,9.8,12.3,13.3,21.2,13.3 c17.5,0,24.5-12.6,24.5-31v-5.4h-0.3c-4.4,9.9-15.2,14.8-25.4,14.8c-24.3,0-36.5-19.1-36.5-41.4c0-19.3,9.5-43.1,37.7-43.1 c10.3,0,19.4,4.6,24.3,13.6h0.2V95.9h12.6V170.6z M867.8,135.1c0-14.4-6.3-29.2-23.2-29.2c-17.2,0-24.2,14.1-24.2,29.7 c0,14.7,5.4,31.1,23.1,31.1C861.2,166.6,867.8,150.4,867.8,135.1"></path> <path class="st4" d="M965.5,151.6c-3.6,18-16.6,27.8-34.9,27.8c-26.1,0-38.4-18-39.2-43c0-24.5,16.1-42.5,38.4-42.5 c28.9,0,37.7,27,36.9,46.7h-61.1c-0.5,14.2,7.6,26.8,25.4,26.8c11.1,0,18.8-5.4,21.2-15.9H965.5z M952.5,128.9 c-0.6-12.8-10.3-23.1-23.5-23.1c-14.1,0-22.4,10.6-23.4,23.1H952.5z"></path> </g> </svg> 