<svg width="240" height="49" viewBox="0 0 240 49" fill="none" xmlns="http://www.w3.org/2000/svg">
<g clip-path="url(#clip0_1_15)">
<path d="M47.061 20.555C46.1342 19.3398 44.9547 18.3458 43.5546 17.6069C42.1484 16.868 40.5415 16.4901 38.7784 16.4901C37.0152 16.4901 35.5768 16.8157 34.2472 17.4502C32.9176 18.0862 31.7656 18.9619 30.8251 20.0495C29.8845 21.1372 29.1569 22.4092 28.6483 23.841C28.1459 25.2682 27.887 26.7937 27.887 28.3806C27.887 30.1043 28.1275 31.7096 28.6024 33.1506C29.0773 34.5962 29.7957 35.8636 30.7408 36.9037C31.6814 37.9499 32.8517 38.7733 34.2104 39.3525C35.5692 39.9316 37.1485 40.2235 38.907 40.2235C40.1156 40.2235 41.2906 40.0545 42.4042 39.7242C43.5179 39.3893 44.538 38.89 45.4357 38.2356C46.3334 37.5812 47.1146 36.767 47.7534 35.8053C48.3921 34.8451 48.8486 33.7375 49.1075 32.5223L49.1688 32.235H44.1061L44.0494 32.3948C43.6404 33.5623 43.02 34.4534 42.1974 35.0325C41.3748 35.6117 40.2704 35.9082 38.907 35.9082C37.9251 35.9082 37.0688 35.7392 36.3688 35.3997C35.6641 35.0602 35.0759 34.5993 34.6194 34.034C34.1583 33.464 33.806 32.7865 33.5763 32.023C33.3649 31.3256 33.2469 30.6005 33.2285 29.8523H48.6847C49.0891 29.8523 49.4277 29.542 49.4598 29.1456C49.587 27.6478 49.4598 26.1684 49.083 24.752C48.6648 23.1789 47.9831 21.7655 47.061 20.5503V20.555ZM33.2362 26.1776C33.2837 25.4756 33.4384 24.8119 33.6973 24.2051C33.9837 23.523 34.3697 22.9238 34.8446 22.42C35.3195 21.9207 35.8924 21.5213 36.5557 21.2386C37.219 20.9559 37.9665 20.81 38.7845 20.81C39.6025 20.81 40.2841 20.9651 40.9183 21.2755C41.5525 21.5858 42.1024 22.0006 42.5497 22.4998C42.997 23.0037 43.3539 23.6013 43.6128 24.285C43.8426 24.8933 43.9943 25.5278 44.0647 26.1838H33.2423L33.2377 26.1792L33.2362 26.1776Z" fill="white"/>
<path d="M70.7737 17.0846V17.0938H66.3452L66.2931 17.2582L61.3897 32.6114C61.3377 32.7666 61.2059 32.8234 61.0987 32.8234C61.0466 32.8234 60.8735 32.8096 60.8076 32.6114L55.7112 17.2536L55.6592 17.0892H50.9809C50.7266 17.0892 50.4877 17.2121 50.3422 17.4241C50.1966 17.6361 50.1583 17.9003 50.2487 18.14L57.865 39.1159C57.9783 39.4216 58.274 39.629 58.5987 39.629H63.2862C63.6155 39.629 63.9111 39.4216 64.0199 39.1113L71.5136 18.1354C71.5979 17.8957 71.5611 17.6269 71.4141 17.4195C71.2685 17.2121 71.028 17.0846 70.7753 17.0846H70.7737Z" fill="white"/>
<path d="M91.0016 20.555C90.0748 19.3398 88.8953 18.3458 87.4952 17.6069C86.089 16.868 84.4821 16.4901 82.719 16.4901C80.9558 16.4901 79.5174 16.8157 78.1878 17.4502C76.8582 18.0862 75.7062 18.9619 74.7657 20.0495C73.8251 21.1372 73.096 22.4092 72.589 23.841C72.0865 25.2682 71.8276 26.7937 71.8276 28.3806C71.8276 30.1043 72.0681 31.7096 72.543 33.1506C73.0179 34.5962 73.7378 35.8636 74.6814 36.9037C75.622 37.9499 76.7923 38.7733 78.151 39.3525C79.5098 39.9316 81.0891 40.2235 82.8477 40.2235C84.0563 40.2235 85.2312 40.0545 86.3448 39.7242C87.4585 39.3893 88.4787 38.89 89.3778 38.2356C90.2755 37.5812 91.0567 36.767 91.6955 35.8053C92.3343 34.8451 92.7908 33.7375 93.0497 32.5223L93.1109 32.235H88.0482L87.9915 32.3948C87.5825 33.5623 86.9622 34.4534 86.1396 35.0325C85.317 35.6117 84.2125 35.9082 82.8492 35.9082C81.8673 35.9082 81.011 35.7392 80.3109 35.3997C79.6063 35.0602 79.0181 34.5993 78.5616 34.034C78.1005 33.464 77.7482 32.7865 77.5184 32.023C77.307 31.3256 77.1891 30.6005 77.1707 29.8523H92.6269C93.0313 29.8523 93.3698 29.542 93.402 29.1456C93.5291 27.6478 93.402 26.1684 93.0267 24.752C92.6085 23.1789 91.9268 21.7655 91.0047 20.5503L91.0016 20.555ZM77.1753 26.1776C77.2228 25.4756 77.3775 24.8119 77.6364 24.2051C77.9228 23.523 78.3088 22.9238 78.7837 22.42C79.2586 21.9207 79.8315 21.5213 80.4947 21.2386C81.158 20.9559 81.9056 20.81 82.7236 20.81C83.5416 20.81 84.2232 20.9651 84.8574 21.2755C85.4916 21.5858 86.0415 22.0006 86.4888 22.4998C86.9346 23.0037 87.293 23.6013 87.5504 24.285C87.7801 24.8933 87.9318 25.5278 88.0023 26.1838H77.1814L77.1768 26.1792L77.1753 26.1776Z" fill="white"/>
<path d="M131.12 20.0173C130.25 18.9296 129.141 18.0586 127.821 17.4318C126.5 16.805 124.939 16.49 123.181 16.49C122.542 16.49 121.883 16.5699 121.229 16.7297C120.577 16.8895 119.941 17.1261 119.344 17.4318C118.746 17.7375 118.192 18.1154 117.698 18.5532C117.355 18.8543 117.044 19.1892 116.772 19.5472V9.0961C116.772 8.66288 116.419 8.31415 115.99 8.31415L115.995 8.30493H111.444V39.629H115.736C116.168 39.629 116.516 39.2756 116.516 38.847V37.1095C116.827 37.5904 117.193 38.0036 117.597 38.3385C118.166 38.8102 118.811 39.1912 119.511 39.483C120.206 39.7749 120.949 39.9731 121.72 40.076C122.481 40.1743 123.247 40.2266 123.985 40.2266C125.635 40.2266 127.092 39.8917 128.314 39.2372C129.532 38.5828 130.557 37.6979 131.356 36.6087C132.151 35.5211 132.752 34.2537 133.142 32.8403C133.528 31.4316 133.726 29.9583 133.726 28.4651C133.726 26.8259 133.51 25.2666 133.078 23.8302C132.646 22.3846 131.987 21.1034 131.117 20.0157L131.12 20.0173ZM128.412 28.376C128.412 29.3469 128.309 30.2594 128.097 31.1597C127.89 32.0491 127.547 32.8557 127.067 33.5562C126.592 34.249 125.976 34.8236 125.247 35.2568C124.523 35.69 123.616 35.9067 122.559 35.9067L122.55 35.8974C121.595 35.8974 120.754 35.7039 120.039 35.3275C119.319 34.9465 118.69 34.4226 118.178 33.7682C117.66 33.1138 117.266 32.3134 117.008 31.3993C116.744 30.4714 116.612 29.4544 116.612 28.3714C116.612 26.0731 117.119 24.2081 118.121 22.8378C119.105 21.4859 120.598 20.8038 122.554 20.8038C123.499 20.8038 124.35 21.0158 125.079 21.4352C125.813 21.8592 126.433 22.4246 126.922 23.1159C127.415 23.8179 127.792 24.6322 128.035 25.537C128.285 26.4511 128.411 27.4066 128.411 28.3775L128.412 28.376Z" fill="white"/>
<path d="M157.06 17.0892H151.73V39.629H157.06V17.0892Z" fill="white"/>
<path d="M177.256 9.0961V19.5472C176.941 19.137 176.579 18.7652 176.17 18.4411C175.602 17.9894 174.975 17.6115 174.309 17.3196C173.641 17.0277 172.936 16.8157 172.212 16.6836C171.492 16.5515 170.773 16.4854 170.082 16.4854C168.865 16.4854 167.656 16.7113 166.481 17.1629C165.302 17.6146 164.239 18.3305 163.327 19.2922C162.416 20.2523 161.673 21.4875 161.127 22.9561C160.582 24.4248 160.305 26.1914 160.305 28.2024C160.305 29.8692 160.521 31.4469 160.953 32.9018C161.385 34.3612 162.043 35.647 162.914 36.7163C163.784 37.7947 164.897 38.6565 166.213 39.2787C167.529 39.9009 169.09 40.2204 170.853 40.2204C172.273 40.2204 173.636 39.9332 174.909 39.3678C175.991 38.887 176.865 38.1388 177.513 37.1356V38.8409C177.513 39.2741 177.866 39.6228 178.293 39.6228H182.585V8.31415H178.034C177.602 8.31415 177.253 8.66748 177.253 9.0961H177.256ZM177.435 28.3345C177.435 29.2762 177.317 30.2087 177.083 31.1136C176.849 32.0077 176.486 32.8234 176.006 33.5393C175.531 34.246 174.911 34.8251 174.168 35.2584C173.425 35.6916 172.527 35.9082 171.498 35.9082H171.489C170.482 35.9082 169.603 35.7008 168.875 35.2952C168.142 34.8851 167.53 34.3397 167.06 33.6607C166.581 32.974 166.219 32.1813 165.988 31.301C165.754 30.4161 165.636 29.502 165.636 28.588C165.636 27.6125 165.74 26.6477 165.951 25.7152C166.158 24.7965 166.506 23.9593 166.981 23.2326C167.455 22.5121 168.076 21.9191 168.823 21.4706C169.562 21.0281 170.493 20.8023 171.578 20.8023C173.393 20.8023 174.788 21.4429 175.845 22.761C176.898 24.0791 177.434 25.9502 177.434 28.333L177.435 28.3345Z" fill="white"/>
<path d="M202.406 19.604C201.791 18.6331 200.976 17.8896 199.981 17.3903C198.786 16.7927 197.461 16.4901 196.041 16.4901H196.036C194.448 16.4901 192.999 16.8004 191.735 17.4087C190.476 18.0155 189.399 18.8497 188.524 19.8805C187.654 20.9114 186.982 22.1219 186.522 23.4784C186.061 24.8349 185.827 26.2805 185.827 27.7784C185.827 29.3838 186.015 30.9154 186.39 32.3226C186.766 33.7406 187.372 35.011 188.199 36.0956C189.027 37.1879 190.09 38.0589 191.349 38.6811C192.61 39.3079 194.16 39.6228 195.946 39.6228C197.341 39.6228 198.668 39.2695 199.877 38.5674C200.892 37.9791 201.738 37.1879 202.395 36.2032V38.8731C202.395 40.6199 201.958 41.9764 201.099 42.895C200.238 43.8091 198.852 44.27 196.966 44.27C196.355 44.27 195.762 44.2362 195.208 44.1671C194.671 44.101 194.174 43.9504 193.731 43.7246C193.294 43.4988 192.913 43.1823 192.593 42.7829C192.277 42.3881 192.047 41.8596 191.916 41.219L191.877 41.03H186.57L186.593 41.2897C186.711 42.6078 187.095 43.7384 187.745 44.6525C188.383 45.5574 189.192 46.2963 190.142 46.8524C191.082 47.4039 192.139 47.7987 193.282 48.0338C194.416 48.2642 195.557 48.3779 196.672 48.3779C200.208 48.3779 202.963 47.5299 204.863 45.8631C206.765 44.187 207.735 41.62 207.735 38.2387V16.4901H202.404V19.6025L202.406 19.604ZM196.715 35.3106C195.742 35.3106 194.903 35.1078 194.217 34.7038C193.526 34.2982 192.947 33.7621 192.501 33.1122C192.049 32.4532 191.71 31.6989 191.49 30.8616C191.269 30.0182 191.156 29.1426 191.156 28.2531C191.156 27.3636 191.254 26.4541 191.447 25.5493C191.64 24.6552 191.96 23.8487 192.397 23.1528C192.829 22.4599 193.408 21.89 194.108 21.4567C194.803 21.0281 195.678 20.8115 196.712 20.8115C197.746 20.8115 198.593 21.0051 199.307 21.3815C200.021 21.7624 200.609 22.2802 201.056 22.9269C201.507 23.5814 201.847 24.3495 202.067 25.2021C202.288 26.0639 202.401 26.958 202.401 27.8721C202.401 28.7862 202.297 29.7141 202.086 30.6128C201.879 31.5069 201.545 32.3134 201.093 33.0139C200.647 33.7021 200.059 34.2659 199.34 34.6853C198.631 35.1047 197.744 35.3106 196.715 35.3121V35.3106Z" fill="white"/>
<path d="M232.277 24.7551C231.858 23.1819 231.177 21.7686 230.255 20.5534C229.328 19.3383 228.148 18.3443 226.748 17.6054C225.343 16.8664 223.735 16.4885 221.972 16.4885C220.301 16.4885 218.77 16.8142 217.441 17.4487C216.111 18.0847 214.959 18.9603 214.019 20.048C213.078 21.1357 212.35 22.4077 211.842 23.8395C211.339 25.2666 211.081 26.7921 211.081 28.3791C211.081 30.1027 211.321 31.7081 211.796 33.1491C212.271 34.5947 212.989 35.8621 213.934 36.9022C214.875 37.9483 216.047 38.7718 217.406 39.3509C218.764 39.9301 220.344 40.222 222.102 40.222C223.309 40.222 224.486 40.053 225.599 39.7227C226.713 39.3878 227.733 38.8885 228.632 38.2341C229.53 37.5796 230.31 36.7654 230.95 35.8037C231.589 34.8436 232.045 33.736 232.304 32.5208L232.364 32.2335H227.301L227.244 32.3933C226.834 33.5608 226.214 34.4518 225.391 35.031C224.568 35.6102 223.464 35.9067 222.101 35.9067C221.117 35.9067 220.262 35.7377 219.561 35.3982C218.856 35.0587 218.268 34.5978 217.813 34.0325C217.353 33.4625 217 32.785 216.77 32.0215C216.558 31.324 216.44 30.5989 216.422 29.8508H231.878C232.283 29.8508 232.621 29.5405 232.653 29.1441C232.781 27.6463 232.653 26.1669 232.278 24.7505L232.277 24.7551ZM219.749 21.2371C220.413 20.9544 221.16 20.8084 221.978 20.8084C222.796 20.8084 223.478 20.9636 224.112 21.2739C224.748 21.5843 225.296 21.999 225.742 22.4983C226.191 23.0022 226.547 23.5998 226.805 24.2834C227.036 24.8918 227.186 25.5263 227.257 26.1822H216.436L216.43 26.1776C216.477 25.4756 216.633 24.8119 216.892 24.2051C217.177 23.523 217.563 22.9239 218.038 22.42C218.515 21.9207 219.087 21.5213 219.751 21.2386L219.749 21.2371Z" fill="white"/>
<path d="M154.593 8.56915H154.325C152.787 8.56915 151.541 9.82119 151.541 11.3574C151.541 12.8937 152.791 14.1457 154.325 14.1457H154.593C156.131 14.1457 157.376 12.8937 157.376 11.3574C157.376 9.82119 156.126 8.56915 154.593 8.56915Z" fill="white"/>
<path d="M108.518 16.8879H108.5C101.387 17.0661 96.0276 21.2862 96.0276 26.703V38.847C96.0276 39.2803 96.3799 39.629 96.8073 39.629H101.061V27.5034C101.061 24.2681 104.578 21.7348 109.062 21.7348H109.296V17.6653C109.296 17.2367 108.944 16.8879 108.517 16.8879H108.518Z" fill="white"/>
<path d="M148.594 16.8879H148.576C141.463 17.0661 136.103 21.2862 136.103 26.703V38.847C136.103 39.2803 136.456 39.629 136.883 39.629H141.137V27.5034C141.137 24.2681 144.653 21.7348 149.138 21.7348H149.372V17.6653C149.372 17.2367 149.02 16.8879 148.592 16.8879H148.594Z" fill="white"/>
<path d="M38.76 0C28.9501 0 19.825 5.32616 14.9446 13.9015L14.94 13.9092C14.9308 13.9245 14.8251 14.1181 14.655 14.4622C11.0292 10.5294 5.96189 8.28958 0.612733 8.28958H0V16.6821H0.612733C6.5394 16.6821 11.3616 21.5136 11.3616 27.4512V28.0657H19.7377H19.7499L19.7377 27.4389C19.7377 27.4066 19.6902 24.242 21.0719 20.4628C23.7128 13.244 30.822 8.39405 38.76 8.39405H39.3727V0H38.76ZM1.22547 15.4669V9.52779C6.17022 9.69678 10.8132 11.9105 14.0913 15.6697C14.0469 15.7711 14.001 15.8756 13.9535 15.9846C13.2917 17.5286 12.3221 20.1187 11.7752 23.1113C10.107 18.8144 6.03695 15.7112 1.22547 15.4669ZM12.5963 26.8351C12.7219 22.7503 14.0653 18.8927 14.9599 16.7528C17.1596 19.7039 18.3789 23.1727 18.5015 26.8351H12.5963ZM38.1472 7.17273C29.9458 7.41546 22.6711 12.5235 19.9215 20.0372C19.5845 20.9605 19.3287 21.8423 19.1326 22.6596C18.503 20.217 17.3909 17.9157 15.8238 15.8571C15.7212 15.7235 15.6232 15.596 15.5282 15.4761C15.8039 14.8908 15.9908 14.5436 16.0107 14.5068C20.5725 6.49525 29.0129 1.45329 38.1472 1.23668V7.17273Z" fill="white"/>
<path d="M232.699 17.1155V16.4902H235.637V17.1155H234.542V20.0773H233.794V17.1155H232.699Z" fill="white"/>
<path d="M236.123 16.4901H237.056L238.041 18.9004H238.082L239.067 16.4901H240V20.0772H239.266V17.7421H239.237L238.312 20.0588H237.812L236.887 17.7329H236.858V20.0757H236.124V16.4885L236.123 16.4901Z" fill="white"/>
</g>
<defs>
<clipPath id="clip0_1_15">
<rect width="240" height="48.3794" fill="white"/>
</clipPath>
</defs>
</svg>
